#!OML:ASF \\sashay\E\Suitcase\Project 1\Capture day 1\Session 1\Male1.ASF
:FULLY-SPECIFIED
:DEGREES
722
root 0.410554 17.0763 22.627 3.59247 3.22639 -1.91745
lowerback 4.93813 -1.1766 -3.07659
upperback -1.4877 -1.58956 4.6163
thorax -4.10664 -0.650338 6.69991
lowerneck -13.6035 0.934005 -3.53385
upperneck 17.1628 1.68352 1.89568
head 7.47301 0.753737 1.37827
rclavicle 4.62174e-015 3.18055e-015
rhumerus -44.1416 -3.87225 -75.2932
rradius 19.6818
rwrist -34.5708
rhand -18.8906 10.5262
rfingers 7.12502
rthumb 7.41073 -19.324
lclavicle 4.62174e-015 3.18055e-015
lhumerus -42.4052 5.95349 84.3726
lradius 35.0202
lwrist -8.12363
lhand 0.521244 43.346
lfingers 7.12502
lthumb 26.0895 71.574
rfemur -14.9108 2.20245 27.7209
rtibia 26.0689
rfoot -14.4692 -12.4293
rtoes 20.9509
lfemur -17.762 1.48026 -14.5364
ltibia 67.377
lfoot 2.24029 -11.5864
ltoes 21.6524
723
root 0.403902 17.0746 22.7344 3.5678 2.94597 -1.7975
lowerback 5.03345 -0.736344 -2.85278
upperback -1.47103 -1.00057 4.23381
thorax -4.23271 -0.363727 6.11859
lowerneck -13.9912 0.403531 -3.73411
upperneck 17.4738 0.927481 2.33982
head 7.6622 0.420631 1.48626
rclavicle -1.17283e-014 3.33958e-014
rhumerus -44.6421 -4.91812 -75.2026
rradius 19.6302
rwrist -33.9758
rhand -19.0037 10.344
rfingers 7.12502
rthumb 7.30156 -19.51
lclavicle -1.17283e-014 3.33958e-014
lhumerus -42.3508 5.41234 84.0711
lradius 34.936
lwrist -8.17647
lhand 0.621599 43.5939
lfingers 7.12502
lthumb 26.1856 71.8078
rfemur -14.5796 2.09797 27.6575
rtibia 26.2559
rfoot -14.7499 -11.9857
rtoes 20.7605
lfemur -18.6054 1.74518 -14.7694
ltibia 67.6843
lfoot 0.81361 -10.921
ltoes 19.8748
724
root 0.386824 17.0611 22.8292 3.40216 2.66181 -2.24422
lowerback 5.27591 -0.57925 -2.55723
upperback -1.44769 -0.762198 4.46162
thorax -4.377 -0.245908 6.17732
lowerneck -14.0857 0.44907 -3.66084
upperneck 17.6514 1.03818 2.03137
head 7.73694 0.447198 1.38656
rclavicle -6.21202e-015 -1.03368e-014
rhumerus -44.7996 -4.52298 -75.2775
rradius 19.6424
rwrist -34.8979
rhand -18.9425 9.79076
rfingers 7.12502
rthumb 7.36062 -20.0612
lclavicle -6.21202e-015 -1.03368e-014
lhumerus -42.4919 5.81572 84.0093
lradius 34.8689
lwrist -7.1209
lhand 0.951165 44.3519
lfingers 7.12502
lthumb 26.5011 72.5185
rfemur -14.092 2.29718 28.3009
rtibia 26.4772
rfoot -15.1331 -12.1567
rtoes 20.606
lfemur -19.4439 2.22237 -14.173
ltibia 67.986
lfoot -0.606789 -10.9338
ltoes 17.2679
725
root 0.370864 17.0532 22.922 3.22544 2.47673 -2.14347
lowerback 5.30207 -0.506313 -2.63485
upperback -1.20392 -0.68395 4.25649
thorax -4.14776 -0.218606 5.99177
lowerneck -14.2089 0.510839 -3.26229
upperneck 17.5104 1.05388 1.94969
head 7.71417 0.474866 1.29486
rclavicle 3.8763e-015 -1.82882e-014
rhumerus -44.7023 -4.3197 -75.9399
rradius 19.4884
rwrist -35.0456
rhand -19.1793 10.1276
rfingers 7.12502
rthumb 7.13209 -19.7323
lclavicle 3.8763e-015 -1.82882e-014
lhumerus -42.3071 5.86678 83.575
lradius 34.636
lwrist -6.31603
lhand 0.207385 43.3196
lfingers 7.12502
lthumb 25.789 71.5916
rfemur -13.6204 2.90048 28.2902
rtibia 26.6389
rfoot -15.5033 -12.3316
rtoes 21.1354
lfemur -20.1347 2.22964 -14.3521
ltibia 68.0538
lfoot -1.07503 -10.6637
ltoes 18.2427
726
root 0.365083 17.0474 23.0221 3.32113 2.16718 -1.80581
lowerback 5.11896 -0.297053 -2.78659
upperback -1.14059 -0.421395 4.06758
thorax -4.01035 -0.0910932 5.85104
lowerneck -14.389 0.408979 -3.3637
upperneck 17.6852 0.933063 2
head 7.80669 0.414668 1.31838
rclavicle -4.32357e-015 2.06736e-014
rhumerus -44.8551 -4.43561 -76.003
rradius 19.6051
rwrist -35.6389
rhand -19.3287 9.32303
rfingers 7.12502
rthumb 6.98789 -20.5416
lclavicle -4.32357e-015 2.06736e-014
lhumerus -42.4852 6.08515 83.4114
lradius 35.0212
lwrist -5.49313
lhand -0.185379 44.1395
lfingers 7.12502
lthumb 25.4128 72.4657
rfemur -13.4268 2.83309 28.0022
rtibia 26.7902
rfoot -15.6171 -12.4203
rtoes 19.4899
lfemur -21.0579 2.50251 -14.8152
ltibia 68.112
lfoot -3.06442 -10.1988
ltoes 9.81955
727
root 0.359343 17.03 23.1154 3.35544 1.99512 -2.1968
lowerback 5.15667 -0.24718 -2.21391
upperback -1.22241 -0.314813 4.06571
thorax -4.13156 -0.0476563 5.51341
lowerneck -14.4075 0.44311 -3.24778
upperneck 17.9059 0.970606 1.91516
head 7.88315 0.430339 1.27748
rclavicle 4.96962e-017 -2.8625e-014
rhumerus -45.0965 -3.8966 -76.5646
rradius 19.4935
rwrist -36.3675
rhand -19.6181 9.29098
rfingers 7.12502
rthumb 6.70849 -20.5828
lclavicle 4.96962e-017 -2.8625e-014
lhumerus -42.905 6.29359 83.0513
lradius 35.2983
lwrist -5.38524
lhand -0.18908 44.3938
lfingers 7.12502
lthumb 25.4093 72.7205
rfemur -13.2138 2.94273 28.5018
rtibia 27.0352
rfoot -16.1971 -12.307
rtoes 19.2946
lfemur -22.0708 2.65035 -14.4459
ltibia 68.108
lfoot -7.04136 -7.20485
ltoes -4.04745
728
root 0.357439 17.0231 23.2112 3.31644 1.72206 -2.04557
lowerback 5.28484 -0.119089 -2.25772
upperback -1.25174 -0.149299 3.98673
thorax -4.25326 0.0381579 5.44305
lowerneck -14.1745 0.408833 -3.17455
upperneck 17.8813 0.926864 1.77748
head 7.83614 0.40062 1.21328
rclavicle 2.6339e-015 -3.73715e-014
rhumerus -45.2261 -3.2678 -77.0265
rradius 19.3996
rwrist -37.3063
rhand -19.9054 8.85385
rfingers 7.12502
rthumb 6.4311 -21.0285
lclavicle 2.6339e-015 -3.73715e-014
lhumerus -43.0638 6.31352 82.9727
lradius 35.2709
lwrist -4.74453
lhand -0.0972203 44.335
lfingers 7.12502
lthumb 25.4972 72.6491
rfemur -12.9067 3.10602 28.3644
rtibia 27.2107
rfoot -16.4912 -12.2756
rtoes 19.5929
lfemur -22.8392 2.75457 -14.7845
ltibia 67.8968
lfoot -8.25244 -5.65778
ltoes -4.12501
729
root 0.342403 17.0076 23.308 3.27878 1.71305 -1.71248
lowerback 5.11628 -0.0805338 -2.52332
upperback -1.01807 -0.128664 3.75241
thorax -3.91622 0.0399725 5.3396
lowerneck -14.2553 0.285107 -3.37827
upperneck 17.5994 0.750969 2.05472
head 7.75955 0.332678 1.31772
rclavicle 1.52567e-014 -1.74931e-014
rhumerus -45.169 -3.19931 -77.4411
rradius 19.4575
rwrist -37.5027
rhand -19.6924 8.85427
rfingers 7.12502
rthumb 6.63677 -21.0217
lclavicle 1.52567e-014 -1.74931e-014
lhumerus -42.7758 6.13694 82.7558
lradius 35.1533
lwrist -4.21997
lhand -0.640348 43.8383
lfingers 7.12502
lthumb 24.9769 72.2258
rfemur -12.5164 3.15575 28.1333
rtibia 27.4164
rfoot -17.0674 -12.4251
rtoes 17.6839
lfemur -23.6128 2.59493 -15.1634
ltibia 67.5647
lfoot -8.99676 -5.70278
ltoes -2.94451
730
root 0.334492 16.9916 23.3994 3.33489 1.42314 -2.29205
lowerback 5.0345 0.0927254 -1.78123
upperback -0.992693 0.15409 3.8261
thorax -3.87194 0.163376 4.96812
lowerneck -14.0848 0.13408 -3.70359
upperneck 17.3527 0.564204 2.29685
head 7.65144 0.246888 1.4283
rclavicle 8.29926e-015 1.19271e-014
rhumerus -45.2456 -3.11508 -77.6349
rradius 19.4317
rwrist -37.9108
rhand -19.5913 9.03864
rfingers 7.12502
rthumb 6.73432 -20.8343
lclavicle 8.29926e-015 1.19271e-014
lhumerus -42.9082 6.23431 82.6531
lradius 35.4806
lwrist -4.08996
lhand -0.572647 44.363
lfingers 7.12502
lthumb 25.0418 72.7414
rfemur -12.2866 3.65088 28.8475
rtibia 27.6003
rfoot -17.2628 -12.5315
rtoes 19.5785
lfemur -24.5669 2.67072 -14.5648
ltibia 67.1637
lfoot -9.5824 -5.63851
ltoes -1.24518
731
root 0.332534 16.983 23.4991 3.33899 1.34422 -2.02109
lowerback 5.06674 0.220849 -1.75637
upperback -0.983032 0.319929 3.64351
thorax -3.89479 0.243454 4.7478
lowerneck -14.1148 -0.0512354 -4.18819
upperneck 17.2418 0.346986 2.67279
head 7.6253 0.148675 1.60866
rclavicle 7.00716e-015 -2.54444e-014
rhumerus -45.5589 -3.21536 -77.7928
rradius 19.4635
rwrist -38.3593
rhand -19.8107 9.02295
rfingers 7.12502
rthumb 6.52255 -20.8566
lclavicle 7.00716e-015 -2.54444e-014
lhumerus -43.0994 6.05889 82.6456
lradius 35.7852
lwrist -3.86493
lhand -1.15415 44.2024
lfingers 7.12502
lthumb 24.4844 72.6573
rfemur -11.9323 3.56019 28.5912
rtibia 27.84
rfoot -17.836 -12.5134
rtoes 18.1386
lfemur -25.3391 2.48432 -14.9931
ltibia 66.5477
lfoot -10.1951 -5.21969
ltoes 0.162904
732
root 0.323944 16.9728 23.5829 3.36002 1.19351 -1.81409
lowerback 5.13516 0.245756 -1.95162
upperback -0.895458 0.334358 3.53267
thorax -3.84424 0.251394 4.74093
lowerneck -14.3971 0.0428042 -3.64243
upperneck 17.4231 0.467976 2.13872
head 7.73416 0.190404 1.35807
rclavicle 8.49804e-015 -2.06736e-014
rhumerus -45.3394 -3.43308 -77.67
rradius 19.3648
rwrist -37.5806
rhand -19.5426 8.80426
rfingers 7.12502
rthumb 6.7814 -21.0671
lclavicle 8.49804e-015 -2.06736e-014
lhumerus -42.9292 6.01543 82.5624
lradius 35.6322
lwrist -3.42597
lhand -0.723902 43.9803
lfingers 7.12502
lthumb 24.8968 72.3789
rfemur -11.7694 3.9116 28.4333
rtibia 28.087
rfoot -18.1788 -12.5415
rtoes 19.3867
lfemur -26.0871 2.21044 -15.2883
ltibia 65.7586
lfoot -10.2773 -5.61687
ltoes 1.69164
733
root 0.313478 16.9647 23.677 3.52247 1.15506 -1.70357
lowerback 4.88664 0.202748 -2.06951
upperback -0.856192 0.267459 3.48137
thorax -3.6569 0.21586 4.75804
lowerneck -14.4687 0.10289 -3.73178
upperneck 17.246 0.562566 2.1986
head 7.68486 0.236952 1.40145
rclavicle 7.7526e-015 -2.94201e-014
rhumerus -45.3832 -2.42235 -78.3603
rradius 19.5233
rwrist -37.8775
rhand -19.5176 8.49836
rfingers 7.12502
rthumb 6.80555 -21.3723
lclavicle 7.7526e-015 -2.94201e-014
lhumerus -42.9313 6.27682 82.3423
lradius 35.7013
lwrist -3.36567
lhand -0.8859 43.682
lfingers 7.12502
lthumb 24.7416 72.102
rfemur -11.6372 3.85397 28.4159
rtibia 28.4253
rfoot -18.7953 -12.88
rtoes 17.1246
lfemur -26.9613 2.11759 -15.52
ltibia 64.9155
lfoot -11.447 -4.6496
ltoes 0.741575
734
root 0.310146 16.9645 23.7769 3.53203 0.804271 -0.886269
lowerback 4.84358 0.360753 -2.8407
upperback -0.853532 0.421392 3.2023
thorax -3.64931 0.305739 4.89214
lowerneck -14.1888 -0.00253442 -3.92644
upperneck 17.0744 0.424391 2.33896
head 7.58242 0.172199 1.46219
rclavicle 4.62174e-015 1.59028e-015
rhumerus -45.6287 -2.57264 -78.2181
rradius 19.546
rwrist -37.1182
rhand -18.8003 8.11097
rfingers 7.12502
rthumb 7.49795 -21.7361
lclavicle 4.62174e-015 1.59028e-015
lhumerus -43.2189 6.07012 82.31
lradius 35.8771
lwrist -3.70251
lhand 0.423282 43.9608
lfingers 7.12502
lthumb 25.9957 72.2027
rfemur -11.4024 3.81637 27.5501
rtibia 28.706
rfoot -18.9375 -12.4554
rtoes 17.9964
lfemur -27.3961 2.04739 -16.598
ltibia 63.8169
lfoot -12.2368 -3.90568
ltoes 0.616112
